<?xml version="1.0" standalone="no"?>
<!DOCTYPE svg PUBLIC "-//W3C//DTD SVG 20010904//EN"
 "http://www.w3.org/TR/2001/REC-SVG-20010904/DTD/svg10.dtd">
<svg version="1.0" xmlns="http://www.w3.org/2000/svg"
 width="500.000000pt" height="500.000000pt" viewBox="0 0 500.000000 500.000000"
 preserveAspectRatio="xMidYMid meet">
<metadata>
Created by potrace 1.14, written by Peter Selinger 2001-2017
</metadata>
<g transform="translate(0.000000,500.000000) scale(0.100000,-0.100000)"
fill="#000000" stroke="none">
<path d="M2275 4990 c-137 -15 -180 -22 -385 -65 -65 -14 -263 -81 -358 -121
-202 -86 -367 -182 -547 -318 -216 -163 -416 -376 -575 -615 -113 -169 -248
-455 -300 -636 -78 -271 -102 -431 -105 -695 -5 -437 78 -798 270 -1176 189
-369 461 -681 800 -916 548 -380 1200 -522 1870 -407 598 103 1177 459 1547
951 207 274 345 564 429 894 57 227 72 353 73 604 1 283 -19 432 -93 704 -69
251 -217 555 -378 773 -242 331 -565 601 -925 776 -84 41 -189 87 -233 102
-44 15 -89 31 -100 36 -28 12 -242 66 -290 74 -22 3 -53 8 -70 11 -153 29
-470 40 -630 24z"/>
</g>
</svg>
